<svg xmlns="http://www.w3.org/2000/svg" width="155.5" height="24" viewBox="254.5 0 155.5 24" enable-background="new 254.5 0 155.5 24"><g fill="#fff"><path d="M258.136 14.582c-.55-.057-1.127-.11-1.51-.24-.48-.148-.358-.738.19-.998.217.02.6.223 1.535.223.505-2.53 1.007-4.785 1.272-5.434.07-.222-.048-.518.6-.518.433 0 1.03.186 1.272.39-.312.923-.767 3.14-1.175 5.413 2.685-.48 4.435-2.015 4.435-4.103 0-1.44-1.44-2.328-3.43-2.328-2.924 0-3.906 1.183-4.29 2.07 0 0-.048.055-.144.055-.216 0-1.51-.59-1.56-.868 0 0 .77-2.292 5.18-2.292 3.284 0 6.112 1.368 6.112 3.77 0 2.42-2.52 4.602-6.52 4.877l-.673 3.807c-.097.333.813-.11.6.426-.24.592-.576 1.053-.84 1.423-.097.13-.17.223-.384.223-.504 0-1.485-.315-1.605-.444.217-1.5.553-3.515.936-5.454zM271.105 18.406c-.383.646-1.367 1.35-2.54 1.35-1.774 0-3.117-1.404-3.117-3.658 0-3.346 1.99-6.67 4.866-6.67 1.63 0 2.35.81 2.35 1.366 0 .093-.023.203-.023.203.218.056 1.15.074 1.01.5-.745 2.067-1.345 3.99-1.345 5.45 0 .85.192 1.423 1.008 1.423 1.246 0 1.582-1.2 1.75-2.31 0 0 .694-.057.694.498 0 .98-.98 3.067-2.805 3.067-1.104 0-1.68-.776-1.728-1.22h-.12zm-2.78.093c1.414 0 2.71-4.417 2.71-5.082 0 0-.77-.11-1.104-.406.503-.536.815-1.183.815-1.85 0-.165 0-.608-.456-.608-1.75 0-2.83 4.416-2.83 6.356.002 1.147.242 1.59.865 1.59zM282.997 12.697s4.746 1.367 4.746 4.582c0 2.124-1.462 2.92-3.116 2.92-1.605 0-3.14-1.073-3.716-2.255-.07 1.515-1.437 2.55-3.043 2.55-2.014 0-4.027-1.663-4.027-3.493 0-.684.575-2.143 1.438-2.143.336 0 1.078.517 1.078.683 0 .59-1.03 2.05-1.03 2.217s.313 1.44 1.702 1.44c1.51 0 2.23-.85 2.23-1.847 0-2.145-2.374-3.492-3.836-4.028-.43-.277-.67-.74-.623-1.22.095-.775 5.2-2.198 5.56-2.198.24 0 .792.48.792.812 0 .7-1.39 1.367-1.99 1.367-.24 0-.55-.148-.79-.148-.624.018-1.728.57-1.896.72l.024.074s3.308 1.48 4.194 3.916c.097-.61.455-1.273 1.175-1.273.335 0 1.078.518 1.078.684 0 .593-.79 1.534-.79 1.7s.31 1.072 1.7 1.072c1.51 0 2.23-.85 2.23-2.107 0-1.885-2.59-3.104-4.17-3.252-.434-.277-.673-.924-.625-1.403.098-.776 6.258-1.978 6.616-1.978.238 0 .79.48.79.813 0 .702-1.63 1.718-2.23 1.718-.24 0-.31-.5-.552-.5-.623.02-2.78.353-2.947.5l.027.074zM290.07 10.406c.07-.203.264-.24.432-.24-.048 0 1.966.055 1.75.684-.72 2.032-1.82 5.617-1.798 7.06 0 .683.336 1.015.72 1.015 1.485 0 1.917-2.014 1.99-2.753 0 0 .886-.186.886.555 0 1.164-.862 3.29-3.522 3.29-1.367 0-2.062-.76-2.062-2.22-.002-1.94 1.125-6.08 1.604-7.39zm.41-2.808c0-.518.31-2.07 1.51-2.07.6 0 .958.11.79.702.36.148.72.352.72.85 0 .592-.503 1.683-2.013 1.683-.385 0-1.008-.334-1.008-1.165zM296.255 9.482c.312.13.552.295.623.462 0 0 .336-.222.84-.222 2.517 0 2.925 1.792 2.853 3.713-.095 2.032-1.005 6.432-4.097 6.432-2.52 0-3.43-2.55-3.356-4.583.117-2.402 1.628-5.45 3.138-5.802zm-.215 9.09c2.23 0 2.974-4.934 3.02-6.023.024-.536.17-1.85-.79-1.85-1.392 0-2.518 3.235-2.756 4.288-.024.074-.553-.074-.695-.166 0 0-.147.518-.17 1.2-.073 1.406.407 2.55 1.39 2.55zM305.126 13.27c-.98 1.646-2.254 4.787-2.23 6.523 0 0-.31.277-.813.277-1.078 0-1.365-.998-1.365-2.402 0-3.936.623-7.65 2.085-7.65.288 0 .84.037.767.5-.286 1.773-.96 3.49-.96 5.32h.1c.91-2.05 1.82-4.25 3.163-6.245.096-.166.312-.166.527-.166.646 0 1.75.332 1.68.924-.193 1.886-1.465 4.287-1.465 6.745 0 .942.312 1.404.982 1.404.79 0 1.27-.98 1.463-1.46 0 0 .527.036.527.5 0 .793-1.03 2.216-2.71 2.216-1.63 0-2.085-1.33-2.085-2.826 0-.796.384-2.717.623-3.66h-.29zM314.355 18.406c-.385.646-1.366 1.35-2.54 1.35-1.775 0-3.117-1.404-3.117-3.658 0-3.346 1.99-6.67 4.866-6.67 1.63 0 2.35.81 2.35 1.366 0 .093-.023.203-.023.203.216.056 1.15.074 1.007.5-.742 2.067-1.342 3.99-1.342 5.45 0 .85.19 1.423 1.006 1.423 1.25 0 1.585-1.2 1.75-2.31 0 0 .696-.057.696.498 0 .98-.982 3.067-2.805 3.067-1.103 0-1.677-.776-1.726-1.22h-.12zm-2.78.093c1.414 0 2.71-4.417 2.71-5.082 0 0-.77-.11-1.105-.406.504-.536.815-1.183.815-1.85 0-.165 0-.608-.455-.608-1.75 0-2.83 4.416-2.83 6.356.002 1.147.242 1.59.865 1.59zM317.425 10.517c.265-.166 1.366-.388 2.565-.572.432-1.257.86-2.2 1.126-2.347.407-.223 1.653.48 1.582.684l-.48 1.367c.456-.057.84-.094 1.128-.112.526-.037.982-.11 1.127.13.144.26.358.056.646.277.118.092.502.5.502.61 0 .128-.048.276-.358.276-.982.02-2.326.148-3.55.297-.79 2.365-1.532 4.988-1.532 6.67 0 .48.264.776.768.776 1.414 0 3.355-1.312 3.45-2.292 0 0 .864-.165.864.944 0 1.256-2.277 2.696-3.812 2.696-1.63 0-2.996-1.312-2.996-3.215 0-1.108.48-3.326 1.078-5.304l-1.078.187c-.624.112-1.366-.85-1.03-1.07zM328.525 9.26c.91 0 1.965.555 1.965 2.255 0 2.364-.84 4.508-2.732 4.508-1.03 0-1.39-.775-1.39-.775s-.433.98-.433 2.477c0 .868.432 1.516 1.653 1.516 1.847 0 3.332-2.31 3.332-3.528 0 0 0-.203.336-.203.384 0 .695.368.695.886 0 1.607-1.294 4.324-3.955 4.324-1.846 0-3.57-1.312-3.57-3.62 0-3.09 1.99-7.84 4.1-7.84zm-1.27 5.654c.84 0 1.558-2.088 1.558-3.787 0-.776-.168-.87-.287-.87-.096 0-.215.075-.36.334-.574 1-1.245 2.514-1.51 3.863-.002 0 .12.46.6.46zM340.128 6.192c.408.093.48.24.672.444 0 0 .623-.313 1.318-.313 3.14 0 3.932 2.144 3.932 4.563 0 2.457-1.056 9.33-5.634 9.33-3.332 0-4.627-3.23-4.627-5.968 0-3.27 2.23-7.575 4.338-8.056zm-.407 12.677c3.74 0 4.556-7.69 4.556-9.24 0-1.127-.432-2.272-1.558-2.272-2.062 0-3.02 2.088-3.403 3.658 0 .02-.024.02-.072.02-.19 0-.695-.167-.862-.297.023 0-1.055 1.7-1.055 4.378-.002 2.087.814 3.75 2.396 3.75zM346.913 23.21c-.048.26-.12.26-.287.278-.146.02-1.15-.166-1.582-.39-.265-.13.48-3.64 1.15-7.06.096-2.29.694-6.188 1.366-6.188.55 0 1.365.425 1.342.628l-.05.407c.722-.795 1.536-1.164 2.184-1.164 2.52 0 2.925 1.793 2.853 3.714-.097 2.032-1.008 6.432-4.1 6.432-1.2 0-1.894-.592-2.254-1.404l-.048.387c-.24 1.46-.43 3.586-.575 4.36zm2.444-4.637c2.23 0 2.974-4.935 3.02-6.024.024-.536.17-1.85-.79-1.85-1.39 0-2.518 3.235-2.757 4.288-.024.074-.455-.074-.6-.166 0 0-.17.59-.19 1.2-.048 1.406.336 2.55 1.317 2.55zM353.53 10.517c.264-.166 1.366-.388 2.565-.572.432-1.257.86-2.2 1.125-2.347.408-.223 1.654.48 1.582.684l-.48 1.367c.456-.057.84-.094 1.127-.112.525-.037.982-.11 1.126.13.144.26.358.056.647.277.118.092.502.5.502.61 0 .128-.047.276-.358.276-.98.02-2.325.148-3.548.297-.792 2.365-1.535 4.988-1.535 6.67 0 .48.264.776.77.776 1.412 0 3.353-1.312 3.45-2.292 0 0 .862-.165.862.944 0 1.256-2.277 2.696-3.812 2.696-1.63 0-2.996-1.312-2.996-3.215 0-1.108.478-3.326 1.077-5.304l-1.078.187c-.622.112-1.365-.85-1.03-1.07zM362.617 10.406c.07-.203.264-.24.43-.24-.047 0 1.967.055 1.75.684-.718 2.032-1.82 5.617-1.797 7.06 0 .683.336 1.015.72 1.015 1.486 0 1.917-2.014 1.99-2.753 0 0 .886-.186.886.555 0 1.164-.86 3.29-3.522 3.29-1.366 0-2.062-.76-2.062-2.22 0-1.94 1.127-6.08 1.605-7.39zm.406-2.808c0-.518.312-2.07 1.51-2.07.6 0 .96.11.792.702.36.148.72.352.72.85 0 .592-.504 1.683-2.014 1.683-.384 0-1.007-.334-1.007-1.165zM369.81 13.455c-.743 1.625-1.895 4.38-1.87 6.115 0 0-.312.277-.814.277-1.078 0-1.605-.888-1.605-2.402 0-3.196 1.128-7.65 1.68-7.65.743 0 1.51.37 1.438.648-.48 1.83-1.223 4.193-1.223 5.395h.096c.912-2.05 1.75-3.954 2.494-5.32.096-.167.312-.167.527-.167.647 0 1.605.24 1.534.832-.145 1.312-.526 3.363-.574 4.823h.096c.91-2.052 1.702-4.416 3.044-6.412.097-.166.312-.166.527-.166.647 0 1.75.332 1.68.924-.192 1.886-1.464 4.675-1.464 6.745 0 .942.312 1.404.982 1.404.79 0 1.27-.98 1.463-1.46 0 0 .526.036.526.5 0 .793-1.03 2.216-2.71 2.216-1.63 0-2.084-1.33-2.084-2.826 0-.796.48-2.717.72-3.66h-.288c-.982 1.646-2.11 5.102-2.086 6.838 0 0-.312.276-.814.276-1.078 0-1.27-.794-1.294-2.198-.024-1.533.07-3.27.24-4.73h-.22zM379.23 10.406c.07-.203.265-.24.432-.24-.05 0 1.966.055 1.75.684-.72 2.032-1.82 5.617-1.8 7.06 0 .683.338 1.015.722 1.015 1.486 0 1.917-2.014 1.99-2.753 0 0 .886-.186.886.555 0 1.164-.862 3.29-3.522 3.29-1.367 0-2.062-.76-2.062-2.22 0-1.94 1.126-6.08 1.604-7.39zm.41-2.808c0-.518.31-2.07 1.51-2.07.6 0 .958.11.79.702.36.148.72.352.72.85 0 .592-.503 1.683-2.013 1.683-.385 0-1.008-.334-1.008-1.165zM386.902 12.217c-1.342.093-3.355.684-4.268.868-.168.037-.646-.942-.646-1.274 0-.923 6.185-1.57 7-1.57.406 0 .79.684.79.924-.91.813-6.04 5.58-6.327 6.67 1.87-.312 3.213-.645 5.153-.645.623.073.912 1.163.912 1.292 0 .352-2.926.463-3.765.608-1.007.187-2.47.556-3.38.888-.84.11-.84-.7-.84-1.164.003-1.48 3.74-5.064 5.372-6.597zM393.16 9.26c.91 0 1.965.555 1.965 2.255 0 2.364-.84 4.508-2.732 4.508-1.03 0-1.39-.775-1.39-.775s-.433.98-.433 2.477c0 .868.432 1.516 1.654 1.516 1.846 0 3.332-2.31 3.332-3.528 0 0 0-.203.336-.203.383 0 .694.368.694.886 0 1.607-1.295 4.324-3.956 4.324-1.846 0-3.57-1.312-3.57-3.62 0-3.09 1.99-7.84 4.1-7.84zm-1.27 5.654c.84 0 1.56-2.088 1.56-3.787 0-.776-.17-.87-.288-.87-.097 0-.216.075-.36.334-.574 1-1.246 2.514-1.51 3.863-.002 0 .118.46.6.46zM398.314 13.824c.623-1.184 1.103-2.846 1.438-3.77.167-.443.79-.59 1.484-.462.505.093.77.277.77.646 0 .684-1.03 1.774-1.03 3.124 0 .26.335.554.718.554.96 0 1.246-1.09 1.392-1.09.167 0 .383.11.383.24-.05.645-.792 1.7-2.037 1.7-1.414 0-1.774-.722-1.87-1.535-.433 1-1.583 3.124-1.63 6.155-.553.258-2.11-.26-2.11-.666 0-.536.265-1.22.456-5.23.07-1.83.144-3.604.958-3.604.623 0 1.365.425 1.365.425-.07 1-.383 2.366-.455 3.456l.166.058zM404.044 12.55s4.41 1.515 4.41 4.73c0 2.124-1.462 2.92-3.116 2.92-2.014 0-3.955-1.737-3.955-3.198 0-.684.575-2.143 1.438-2.143.338 0 1.08.517 1.08.683 0 .59-1.03 2.05-1.03 2.217s.312 1.072 1.7 1.072c1.512 0 2.23-.85 2.23-2.107 0-1.885-2.254-3.252-3.836-3.398-.432-.277-.67-.924-.623-1.404.098-.775 5.922-2.384 6.28-2.384.24 0 .792.48.792.812 0 .702-1.63 1.72-2.23 1.72-.24 0-.31-.5-.55-.5-.624.02-2.445.758-2.613.905l.024.072z"/></g></svg>