<svg xmlns="http://www.w3.org/2000/svg" width="242.238" height="24" viewBox="0 0 242.238 24"><g fill="#fff"><path d="M10.528 21.008C4.848 21.008 0 16.722 0 10.626 0 4.53 4.82.276 10.23.276c4.37 0 7.05 1.844 8.745 4.345L14.9 7.385c-.773-1.19-2.022-2.408-4.58-2.408-2.974 0-4.786 2.468-4.786 5.65s1.873 5.68 4.965 5.68c2.615 0 3.895-1.188 4.758-2.794l4.164 2.676c-1.992 3.36-4.788 4.82-8.894 4.82zM18.886 10.626c0-6.095 5.026-10.35 10.852-10.35 5.83 0 10.858 4.255 10.858 10.35 0 6.096-5.027 10.382-10.858 10.382-5.825 0-10.852-4.286-10.852-10.382zm16.178 0c0-3.183-1.933-5.65-5.326-5.65-3.39 0-5.32 2.468-5.32 5.65s1.93 5.68 5.32 5.68c3.393 0 5.326-2.497 5.326-5.68zM47.02 10.655v10.08h-5.087V.246c0-.176.088-.325.416-.058l12.7 10.468V.515h5.086v20.52c0 .237-.09.327-.417.06l-12.7-10.44zM70.69 20.944c-.088.18-.267.18-.356 0L60.816.516h5.77l4.135 9.428L74.736.516h5.504l-9.55 20.428zM80.922.516h14.183v4.55h-8.77v3.33h7.314v4.313h-7.316v3.478h9.19v4.55H80.922V.515zM102.36 20.736h-5.41V.516h8.178c5.146 0 8 3.033 8 7.165 0 2.677-1.28 4.79-3.687 5.893l4.193 7.164h-5.86l-3.568-6.334h-1.846v6.333zm2.502-10.464c1.842 0 2.824-.926 2.824-2.592 0-1.662-.982-2.587-2.824-2.587h-2.5v5.18h2.5zM113.07 17.29l3.925-2.946c.98 1.22 2.2 2.198 4.22 2.198 1.607 0 2.56-.474 2.56-1.605 0-.862-.656-1.275-1.993-1.723l-2.378-.803c-2.945-.98-5.024-2.765-5.024-6.095 0-3.988 3.3-6.038 6.897-6.038 3.57 0 5.708 1.276 6.897 2.676l-3.092 3.24c-.832-.863-1.902-1.456-3.51-1.456-1.307 0-1.962.593-1.962 1.398 0 .773.444 1.16 1.427 1.488l2.677.89c4.044 1.34 5.413 3.273 5.413 6.126 0 3.72-2.32 6.394-7.673 6.394-4.55 0-7.136-2.082-8.385-3.745zM130.526.516h5.413v20.22h-5.414V.517zM137.396 10.626c0-6.095 5.026-10.35 10.854-10.35 5.83 0 10.856 4.255 10.856 10.35 0 6.096-5.027 10.382-10.856 10.382-5.828 0-10.854-4.286-10.854-10.382zm16.178 0c0-3.183-1.933-5.65-5.324-5.65-3.39 0-5.324 2.468-5.324 5.65s1.933 5.68 5.324 5.68c3.39 0 5.324-2.497 5.324-5.68zM165.53 10.655v10.08h-5.087V.246c0-.176.09-.325.416-.058l12.7 10.468V.515h5.083v20.52c0 .237-.09.327-.416.06l-12.698-10.44zM181.082.516h5.412v20.22h-5.412V.517zM187.297 17.29l3.925-2.946c.983 1.22 2.202 2.198 4.223 2.198 1.608 0 2.56-.474 2.56-1.605 0-.862-.655-1.275-1.992-1.723l-2.38-.803c-2.944-.98-5.025-2.765-5.025-6.095 0-3.988 3.302-6.038 6.9-6.038 3.568 0 5.71 1.276 6.9 2.676l-3.096 3.24c-.83-.863-1.903-1.456-3.508-1.456-1.308 0-1.963.593-1.963 1.398 0 .773.448 1.16 1.43 1.488l2.677.89c4.042 1.34 5.41 3.273 5.41 6.126 0 3.72-2.317 6.394-7.67 6.394-4.553 0-7.14-2.082-8.39-3.745zM208.176 5.065h-5.354V.515h16.12v4.55h-5.354v15.67h-5.412V5.066zM228.935 18.3h-7.05l-1.014 2.437h-5.29l9.847-20.58c.086-.208.264-.208.354 0l9.815 20.58h-5.592l-1.068-2.437zm-5.386-3.926h3.657l-1.842-4.282-1.816 4.282zM235.743 18.12c0-1.726 1.397-2.913 2.973-2.913 1.547 0 2.975 1.188 2.975 2.912 0 1.728-1.427 2.914-2.974 2.914-1.575 0-2.973-1.186-2.973-2.915zm.18-17.604h5.59l-.597 13.383h-4.4L235.923.515z"/></g></svg>