<svg xmlns="http://www.w3.org/2000/svg" viewBox="0 0 612 792" enable-background="new 0 0 612 792"><g fill="#fff"><path d="M231.6 623.6C106.7 623.6 0 529.6 0 395.3c0-133.9 106-227.6 225.1-227.6 96.2 0 155 40.7 192.4 95.5l-89.7 61c-17.1-26.1-44.6-53-100.9-53-65.3 0-105.3 54.4-105.3 124.1 0 70.1 41.4 124.9 109.3 124.9 57.7 0 85.7-26.1 104.5-61.3l91.5 58.8c-43.6 74-104.9 105.9-195.3 105.9zM481 560.4c0-38.1 30.9-64.2 65.3-64.2 34.1 0 65.3 26.1 65.3 64.2s-31.6 64.2-65.3 64.2c-34.5-.3-65.3-26.4-65.3-64.2zm4-387.6h123l-13.1 294.4H498l-13-294.4z"/></g></svg>