<?xml version="1.0" encoding="utf-8"?>
<!-- Generator: Adobe Illustrator 15.0.2, SVG Export Plug-In . SVG Version: 6.00 Build 0)  -->
<!DOCTYPE svg PUBLIC "-//W3C//DTD SVG 1.1//EN" "http://www.w3.org/Graphics/SVG/1.1/DTD/svg11.dtd">
<svg version="1.1" id="Lager_1" xmlns="http://www.w3.org/2000/svg" xmlns:xlink="http://www.w3.org/1999/xlink" x="0px" y="0px"
	 width="242.238px" height="24px" viewBox="0 0 242.238 24" enable-background="new 0 0 242.238 24" xml:space="preserve">
<g>
	<path fill="#FFFFFF" d="M10.528,21.008C4.849,21.008,0,16.722,0,10.626C0,4.531,4.82,0.277,10.231,0.277
		c4.37,0,7.048,1.843,8.744,4.344L14.9,7.384c-0.773-1.19-2.022-2.408-4.579-2.408c-2.975,0-4.787,2.468-4.787,5.65
		s1.873,5.681,4.965,5.681c2.616,0,3.896-1.189,4.759-2.795l4.164,2.676C17.43,19.549,14.634,21.008,10.528,21.008z"/>
	<path fill="#FFFFFF" d="M18.886,10.626c0-6.095,5.026-10.349,10.852-10.349c5.831,0,10.858,4.254,10.858,10.349
		c0,6.096-5.027,10.382-10.858,10.382C23.913,21.008,18.886,16.722,18.886,10.626z M35.064,10.626c0-3.183-1.933-5.65-5.326-5.65
		c-3.389,0-5.321,2.468-5.321,5.65s1.932,5.681,5.321,5.681C33.131,16.307,35.064,13.809,35.064,10.626z"/>
	<path fill="#FFFFFF" d="M47.021,10.655v10.081h-5.088V0.245c0-0.176,0.088-0.325,0.416-0.058l12.7,10.468V0.516h5.087v20.519
		c0,0.237-0.091,0.327-0.417,0.06L47.021,10.655z"/>
	<path fill="#FFFFFF" d="M70.689,20.944c-0.087,0.179-0.266,0.179-0.355,0L60.816,0.516h5.77l4.135,9.428l4.014-9.428h5.504
		L70.689,20.944z"/>
	<path fill="#FFFFFF" d="M80.922,0.516h14.183v4.55h-8.771v3.331h7.315v4.312h-7.315v3.479h9.19v4.549H80.922V0.516z"/>
	<path fill="#FFFFFF" d="M102.36,20.736h-5.409V0.516h8.177c5.146,0,8,3.033,8,7.165c0,2.676-1.279,4.788-3.687,5.892l4.192,7.164
		h-5.86l-3.568-6.334h-1.846V20.736z M104.862,10.272c1.842,0,2.824-0.926,2.824-2.592c0-1.662-0.982-2.587-2.824-2.587h-2.501
		v5.179H104.862z"/>
	<path fill="#FFFFFF" d="M113.069,17.289l3.926-2.945c0.98,1.22,2.2,2.198,4.22,2.198c1.607,0,2.559-0.474,2.559-1.605
		c0-0.862-0.655-1.275-1.992-1.723l-2.378-0.803c-2.945-0.981-5.024-2.766-5.024-6.096c0-3.988,3.299-6.038,6.897-6.038
		c3.57,0,5.708,1.276,6.897,2.676l-3.092,3.24c-0.832-0.863-1.902-1.456-3.509-1.456c-1.308,0-1.963,0.593-1.963,1.398
		c0,0.773,0.444,1.159,1.427,1.488l2.677,0.89c4.044,1.339,5.413,3.273,5.413,6.126c0,3.72-2.319,6.395-7.673,6.395
		C116.904,21.034,114.318,18.952,113.069,17.289z"/>
	<path fill="#FFFFFF" d="M130.526,0.516h5.413v20.221h-5.413V0.516z"/>
	<path fill="#FFFFFF" d="M137.396,10.626c0-6.095,5.026-10.349,10.854-10.349c5.829,0,10.856,4.254,10.856,10.349
		c0,6.096-5.027,10.382-10.856,10.382C142.422,21.008,137.396,16.722,137.396,10.626z M153.574,10.626
		c0-3.183-1.933-5.65-5.324-5.65c-3.391,0-5.324,2.468-5.324,5.65s1.933,5.681,5.324,5.681
		C151.641,16.307,153.574,13.809,153.574,10.626z"/>
	<path fill="#FFFFFF" d="M165.529,10.655v10.081h-5.086V0.245c0-0.176,0.09-0.325,0.416-0.058l12.7,10.468V0.516h5.084v20.519
		c0,0.237-0.089,0.327-0.416,0.06L165.529,10.655z"/>
	<path fill="#FFFFFF" d="M181.082,0.516h5.412v20.221h-5.412V0.516z"/>
	<path fill="#FFFFFF" d="M187.297,17.289l3.925-2.945c0.983,1.22,2.202,2.198,4.223,2.198c1.608,0,2.559-0.474,2.559-1.605
		c0-0.862-0.654-1.275-1.991-1.723l-2.38-0.803c-2.944-0.981-5.025-2.766-5.025-6.096c0-3.988,3.302-6.038,6.899-6.038
		c3.569,0,5.711,1.276,6.9,2.676l-3.095,3.24c-0.831-0.863-1.903-1.456-3.508-1.456c-1.308,0-1.963,0.593-1.963,1.398
		c0,0.773,0.447,1.159,1.428,1.488l2.678,0.89c4.042,1.339,5.41,3.273,5.41,6.126c0,3.72-2.317,6.395-7.671,6.395
		C191.134,21.034,188.547,18.952,187.297,17.289z"/>
	<path fill="#FFFFFF" d="M208.176,5.065h-5.354v-4.55h16.12v4.55h-5.354v15.671h-5.412V5.065z"/>
	<path fill="#FFFFFF" d="M228.935,18.3h-7.05l-1.014,2.437h-5.292l9.848-20.581c0.086-0.207,0.264-0.207,0.354,0l9.814,20.581
		h-5.592L228.935,18.3z M223.549,14.374h3.658l-1.842-4.282L223.549,14.374z"/>
	<path fill="#FFFFFF" d="M235.743,18.119c0-1.725,1.397-2.912,2.973-2.912c1.547,0,2.975,1.188,2.975,2.912
		c0,1.729-1.428,2.915-2.975,2.915C237.141,21.034,235.743,19.848,235.743,18.119z M235.922,0.516h5.59l-0.596,13.383h-4.399
		L235.922,0.516z"/>
</g>
</svg>
