<?xml version="1.0" encoding="utf-8"?>
<!-- Generator: Adobe Illustrator 18.1.0, SVG Export Plug-In . SVG Version: 6.00 Build 0)  -->
<svg version="1.1" id="Lager_1" xmlns="http://www.w3.org/2000/svg" xmlns:xlink="http://www.w3.org/1999/xlink" x="0px" y="0px"
	 viewBox="0 0 612 792" enable-background="new 0 0 612 792" xml:space="preserve">
<g>
	<path fill="#FFFFFF" d="M231.6,623.6C106.7,623.6,0,529.6,0,395.3c0-133.9,106-227.6,225.1-227.6c96.2,0,155,40.7,192.4,95.5
		l-89.7,61c-17.1-26.1-44.6-53-100.9-53c-65.3,0-105.3,54.4-105.3,124.1c0,70.1,41.4,124.9,109.3,124.9c57.7,0,85.7-26.1,104.5-61.3
		l91.5,58.8C383.3,591.7,322,623.6,231.6,623.6z"/>
	<path fill="#FFFFFF" d="M481,560.4c0-38.1,30.9-64.2,65.3-64.2c34.1,0,65.3,26.1,65.3,64.2s-31.6,64.2-65.3,64.2
		C511.8,624.3,481,598.2,481,560.4z M485,172.8H608l-13.1,294.4H498L485,172.8z"/>
</g>
</svg>
