<?xml version="1.0" encoding="utf-8"?>
<!-- Generator: Adobe Illustrator 15.0.2, SVG Export Plug-In . SVG Version: 6.00 Build 0)  -->
<!DOCTYPE svg PUBLIC "-//W3C//DTD SVG 1.1//EN" "http://www.w3.org/Graphics/SVG/1.1/DTD/svg11.dtd">
<svg version="1.1" id="Lager_1" xmlns="http://www.w3.org/2000/svg" xmlns:xlink="http://www.w3.org/1999/xlink" x="0px" y="0px"
	 width="155.5px" height="24px" viewBox="254.5 0 155.5 24" enable-background="new 254.5 0 155.5 24" xml:space="preserve">
<g>
	<path fill="#FFFFFF" d="M258.136,14.582c-0.551-0.057-1.127-0.111-1.51-0.24c-0.479-0.148-0.358-0.738,0.19-0.998
		c0.217,0.02,0.601,0.223,1.535,0.223c0.504-2.531,1.006-4.785,1.271-5.434c0.071-0.222-0.048-0.518,0.601-0.518
		c0.432,0,1.03,0.186,1.271,0.389c-0.312,0.924-0.767,3.142-1.175,5.414c2.686-0.48,4.436-2.015,4.436-4.103
		c0-1.441-1.439-2.328-3.429-2.328c-2.925,0-3.907,1.183-4.291,2.069c0,0-0.048,0.056-0.144,0.056c-0.217,0-1.511-0.591-1.56-0.868
		c0,0,0.769-2.292,5.178-2.292c3.285,0,6.113,1.368,6.113,3.771c0,2.42-2.519,4.601-6.521,4.876l-0.672,3.808
		c-0.096,0.333,0.814-0.11,0.601,0.426c-0.24,0.592-0.576,1.053-0.841,1.423c-0.096,0.129-0.168,0.223-0.383,0.223
		c-0.504,0-1.485-0.314-1.605-0.443C257.417,18.536,257.753,16.521,258.136,14.582z"/>
	<path fill="#FFFFFF" d="M271.105,18.406c-0.383,0.646-1.367,1.35-2.541,1.35c-1.773,0-3.116-1.404-3.116-3.658
		c0-3.346,1.989-6.671,4.866-6.671c1.631,0,2.35,0.812,2.35,1.367c0,0.093-0.023,0.203-0.023,0.203
		c0.217,0.056,1.15,0.074,1.008,0.499c-0.744,2.068-1.344,3.99-1.344,5.451c0,0.85,0.192,1.423,1.008,1.423
		c1.246,0,1.582-1.201,1.75-2.31c0,0,0.694-0.057,0.694,0.498c0,0.979-0.981,3.067-2.805,3.067c-1.104,0-1.679-0.776-1.728-1.221
		L271.105,18.406L271.105,18.406z M268.325,18.499c1.414,0,2.709-4.416,2.709-5.081c0,0-0.769-0.111-1.103-0.406
		c0.502-0.536,0.814-1.183,0.814-1.849c0-0.166,0-0.609-0.456-0.609c-1.75,0-2.829,4.416-2.829,6.356
		C267.462,18.057,267.702,18.499,268.325,18.499z"/>
	<path fill="#FFFFFF" d="M282.997,12.697c0,0,4.746,1.367,4.746,4.582c0,2.125-1.462,2.92-3.116,2.92
		c-1.605,0-3.141-1.072-3.716-2.254c-0.071,1.515-1.438,2.55-3.044,2.55c-2.014,0-4.027-1.663-4.027-3.493
		c0-0.684,0.575-2.143,1.438-2.143c0.336,0,1.078,0.518,1.078,0.684c0,0.591-1.029,2.051-1.029,2.217s0.312,1.441,1.701,1.441
		c1.511,0,2.229-0.85,2.229-1.848c0-2.145-2.373-3.492-3.835-4.028c-0.431-0.277-0.671-0.739-0.623-1.22
		c0.096-0.775,5.202-2.198,5.562-2.198c0.24,0,0.791,0.48,0.791,0.812c0,0.702-1.391,1.368-1.99,1.368
		c-0.239,0-0.551-0.148-0.791-0.148c-0.623,0.019-1.727,0.572-1.895,0.721l0.024,0.074c0,0,3.308,1.479,4.194,3.916
		c0.097-0.609,0.455-1.273,1.175-1.273c0.336,0,1.079,0.518,1.079,0.684c0,0.592-0.791,1.533-0.791,1.699s0.312,1.072,1.701,1.072
		c1.511,0,2.229-0.85,2.229-2.107c0-1.885-2.588-3.104-4.17-3.252c-0.433-0.277-0.672-0.924-0.624-1.403
		c0.098-0.776,6.258-1.978,6.616-1.978c0.239,0,0.791,0.48,0.791,0.813c0,0.702-1.63,1.718-2.229,1.718
		c-0.24,0-0.312-0.499-0.553-0.499c-0.623,0.019-2.779,0.352-2.947,0.499L282.997,12.697z"/>
	<path fill="#FFFFFF" d="M290.07,10.406c0.07-0.203,0.264-0.24,0.432-0.24c-0.048,0,1.966,0.055,1.75,0.684
		c-0.72,2.032-1.82,5.617-1.798,7.059c0,0.684,0.336,1.016,0.719,1.016c1.486,0,1.918-2.014,1.99-2.753c0,0,0.887-0.186,0.887,0.555
		c0,1.164-0.862,3.289-3.522,3.289c-1.367,0-2.062-0.758-2.062-2.218C288.464,15.857,289.591,11.718,290.07,10.406z M290.479,7.598
		c0-0.518,0.312-2.07,1.51-2.07c0.6,0,0.959,0.111,0.791,0.702c0.359,0.148,0.721,0.352,0.721,0.851
		c0,0.591-0.504,1.682-2.014,1.682C291.102,8.762,290.479,8.429,290.479,7.598z"/>
	<path fill="#FFFFFF" d="M296.255,9.482c0.312,0.129,0.552,0.295,0.623,0.462c0,0,0.336-0.222,0.84-0.222
		c2.517,0,2.925,1.792,2.853,3.713c-0.096,2.032-1.006,6.432-4.098,6.432c-2.519,0-3.43-2.551-3.356-4.583
		C293.234,12.882,294.745,9.833,296.255,9.482z M296.04,18.573c2.229,0,2.974-4.935,3.021-6.024
		c0.023-0.535,0.168-1.848-0.791-1.848c-1.392,0-2.518,3.234-2.756,4.287c-0.024,0.074-0.553-0.074-0.695-0.166
		c0,0-0.146,0.518-0.168,1.201C294.577,17.428,295.057,18.573,296.04,18.573z"/>
	<path fill="#FFFFFF" d="M305.126,13.27c-0.981,1.646-2.254,4.787-2.229,6.523c0,0-0.312,0.277-0.814,0.277
		c-1.078,0-1.365-0.998-1.365-2.402c0-3.936,0.623-7.65,2.085-7.65c0.288,0,0.839,0.037,0.767,0.499
		c-0.286,1.774-0.959,3.492-0.959,5.321h0.098c0.911-2.051,1.82-4.249,3.164-6.245c0.096-0.166,0.312-0.166,0.527-0.166
		c0.646,0,1.75,0.332,1.679,0.924c-0.192,1.885-1.464,4.286-1.464,6.744c0,0.942,0.312,1.404,0.982,1.404
		c0.791,0,1.271-0.979,1.463-1.46c0,0,0.527,0.037,0.527,0.5c0,0.794-1.031,2.217-2.709,2.217c-1.63,0-2.086-1.33-2.086-2.826
		c0-0.796,0.384-2.717,0.623-3.66H305.126z"/>
	<path fill="#FFFFFF" d="M314.355,18.406c-0.385,0.646-1.366,1.35-2.541,1.35c-1.774,0-3.116-1.404-3.116-3.658
		c0-3.346,1.989-6.671,4.866-6.671c1.629,0,2.35,0.812,2.35,1.367c0,0.093-0.023,0.203-0.023,0.203
		c0.215,0.056,1.149,0.074,1.006,0.499c-0.742,2.068-1.342,3.99-1.342,5.451c0,0.85,0.191,1.423,1.006,1.423
		c1.248,0,1.584-1.201,1.75-2.31c0,0,0.695-0.057,0.695,0.498c0,0.979-0.982,3.067-2.805,3.067c-1.104,0-1.678-0.776-1.727-1.221
		L314.355,18.406L314.355,18.406z M311.575,18.499c1.414,0,2.709-4.416,2.709-5.081c0,0-0.769-0.111-1.104-0.406
		c0.504-0.536,0.815-1.183,0.815-1.849c0-0.166,0-0.609-0.455-0.609c-1.751,0-2.829,4.416-2.829,6.356
		C310.712,18.057,310.952,18.499,311.575,18.499z"/>
	<path fill="#FFFFFF" d="M317.425,10.517c0.265-0.166,1.366-0.388,2.565-0.572c0.432-1.257,0.861-2.199,1.126-2.347
		c0.407-0.223,1.653,0.48,1.582,0.684l-0.479,1.367c0.455-0.056,0.84-0.093,1.127-0.111c0.526-0.037,0.982-0.11,1.127,0.13
		c0.144,0.259,0.358,0.056,0.646,0.277c0.119,0.092,0.503,0.499,0.503,0.609c0,0.129-0.048,0.277-0.358,0.277
		c-0.982,0.019-2.326,0.147-3.549,0.296c-0.791,2.365-1.533,4.988-1.533,6.67c0,0.48,0.264,0.776,0.768,0.776
		c1.414,0,3.355-1.312,3.451-2.292c0,0,0.863-0.166,0.863,0.943c0,1.256-2.277,2.696-3.812,2.696c-1.631,0-2.996-1.312-2.996-3.215
		c0-1.108,0.479-3.326,1.078-5.304l-1.078,0.186C317.832,11.699,317.09,10.738,317.425,10.517z"/>
	<path fill="#FFFFFF" d="M328.525,9.261c0.91,0,1.965,0.554,1.965,2.254c0,2.364-0.84,4.508-2.732,4.508
		c-1.029,0-1.391-0.775-1.391-0.775s-0.432,0.979-0.432,2.477c0,0.868,0.432,1.516,1.653,1.516c1.847,0,3.332-2.311,3.332-3.529
		c0,0,0-0.203,0.336-0.203c0.384,0,0.695,0.369,0.695,0.887c0,1.607-1.295,4.324-3.956,4.324c-1.846,0-3.571-1.312-3.571-3.621
		C324.426,14.009,326.415,9.261,328.525,9.261z M327.255,14.914c0.839,0,1.558-2.088,1.558-3.787c0-0.776-0.168-0.869-0.287-0.869
		c-0.096,0-0.215,0.074-0.359,0.333c-0.575,0.998-1.246,2.513-1.51,3.862C326.654,14.453,326.775,14.914,327.255,14.914z"/>
	<path fill="#FFFFFF" d="M340.128,6.192c0.408,0.093,0.479,0.24,0.672,0.444c0,0,0.623-0.313,1.318-0.313
		c3.14,0,3.932,2.144,3.932,4.563c0,2.457-1.056,9.331-5.634,9.331c-3.332,0-4.627-3.232-4.627-5.969
		C335.789,10.979,338.02,6.673,340.128,6.192z M339.721,18.869c3.739,0,4.555-7.688,4.555-9.239c0-1.127-0.432-2.272-1.558-2.272
		c-2.062,0-3.021,2.088-3.403,3.658c0,0.019-0.024,0.019-0.072,0.019c-0.191,0-0.695-0.166-0.862-0.296
		c0.022,0-1.056,1.7-1.056,4.379C337.323,17.205,338.139,18.869,339.721,18.869z"/>
	<path fill="#FFFFFF" d="M346.913,23.211c-0.048,0.259-0.12,0.259-0.287,0.277c-0.146,0.019-1.151-0.166-1.582-0.389
		c-0.265-0.13,0.479-3.641,1.149-7.06c0.097-2.291,0.695-6.189,1.367-6.189c0.551,0,1.365,0.425,1.342,0.628l-0.049,0.407
		c0.721-0.795,1.535-1.164,2.183-1.164c2.519,0,2.925,1.792,2.853,3.713c-0.096,2.032-1.007,6.432-4.099,6.432
		c-1.199,0-1.894-0.592-2.254-1.404l-0.048,0.387C347.249,20.311,347.057,22.436,346.913,23.211z M349.357,18.573
		c2.229,0,2.974-4.935,3.021-6.024c0.023-0.535,0.168-1.848-0.791-1.848c-1.391,0-2.518,3.234-2.757,4.287
		c-0.024,0.074-0.455-0.074-0.601-0.166c0,0-0.168,0.591-0.19,1.201C347.992,17.428,348.376,18.573,349.357,18.573z"/>
	<path fill="#FFFFFF" d="M353.529,10.517c0.265-0.166,1.367-0.388,2.566-0.572c0.432-1.257,0.861-2.199,1.125-2.347
		c0.408-0.223,1.654,0.48,1.582,0.684l-0.479,1.367c0.455-0.056,0.839-0.093,1.126-0.111c0.526-0.037,0.983-0.11,1.127,0.13
		c0.144,0.259,0.358,0.056,0.647,0.277c0.118,0.092,0.502,0.499,0.502,0.609c0,0.129-0.047,0.277-0.358,0.277
		c-0.981,0.019-2.325,0.147-3.548,0.296c-0.791,2.365-1.534,4.988-1.534,6.67c0,0.48,0.264,0.776,0.769,0.776
		c1.413,0,3.354-1.312,3.45-2.292c0,0,0.863-0.166,0.863,0.943c0,1.256-2.277,2.696-3.812,2.696c-1.631,0-2.996-1.312-2.996-3.215
		c0-1.108,0.479-3.326,1.078-5.304l-1.078,0.186C353.938,11.699,353.195,10.738,353.529,10.517z"/>
	<path fill="#FFFFFF" d="M362.617,10.406c0.07-0.203,0.264-0.24,0.431-0.24c-0.048,0,1.966,0.055,1.75,0.684
		c-0.719,2.032-1.821,5.617-1.798,7.059c0,0.684,0.336,1.016,0.721,1.016c1.485,0,1.916-2.014,1.988-2.753
		c0,0,0.887-0.186,0.887,0.555c0,1.164-0.861,3.289-3.522,3.289c-1.366,0-2.062-0.758-2.062-2.218
		C361.011,15.857,362.139,11.718,362.617,10.406z M363.023,7.598c0-0.518,0.312-2.07,1.511-2.07c0.6,0,0.959,0.111,0.791,0.702
		c0.36,0.148,0.72,0.352,0.72,0.851c0,0.591-0.504,1.682-2.014,1.682C363.646,8.762,363.023,8.429,363.023,7.598z"/>
	<path fill="#FFFFFF" d="M369.809,13.455c-0.742,1.625-1.894,4.379-1.869,6.115c0,0-0.312,0.277-0.814,0.277
		c-1.078,0-1.605-0.888-1.605-2.402c0-3.196,1.127-7.649,1.679-7.649c0.743,0,1.51,0.37,1.438,0.647
		c-0.479,1.829-1.223,4.193-1.223,5.395h0.096c0.911-2.051,1.75-3.954,2.493-5.321c0.096-0.166,0.312-0.166,0.527-0.166
		c0.646,0,1.604,0.24,1.533,0.831c-0.145,1.312-0.526,3.363-0.574,4.823h0.096c0.911-2.052,1.702-4.416,3.044-6.412
		c0.097-0.166,0.312-0.166,0.527-0.166c0.647,0,1.75,0.332,1.679,0.924c-0.191,1.885-1.463,4.674-1.463,6.744
		c0,0.942,0.312,1.404,0.982,1.404c0.791,0,1.271-0.979,1.463-1.46c0,0,0.526,0.037,0.526,0.5c0,0.794-1.03,2.217-2.709,2.217
		c-1.63,0-2.085-1.33-2.085-2.826c0-0.796,0.479-2.717,0.719-3.66h-0.287c-0.982,1.646-2.109,5.102-2.086,6.838
		c0,0-0.312,0.276-0.814,0.276c-1.078,0-1.271-0.794-1.294-2.198c-0.024-1.533,0.071-3.271,0.239-4.729L369.809,13.455
		L369.809,13.455z"/>
	<path fill="#FFFFFF" d="M379.23,10.406c0.071-0.203,0.265-0.24,0.432-0.24c-0.049,0,1.966,0.055,1.75,0.684
		c-0.719,2.032-1.821,5.617-1.799,7.059c0,0.684,0.337,1.016,0.721,1.016c1.486,0,1.917-2.014,1.989-2.753
		c0,0,0.887-0.186,0.887,0.555c0,1.164-0.862,3.289-3.522,3.289c-1.367,0-2.062-0.758-2.062-2.218
		C377.625,15.857,378.752,11.718,379.23,10.406z M379.639,7.598c0-0.518,0.312-2.07,1.51-2.07c0.601,0,0.959,0.111,0.791,0.702
		c0.36,0.148,0.721,0.352,0.721,0.851c0,0.591-0.504,1.682-2.014,1.682C380.262,8.762,379.639,8.429,379.639,7.598z"/>
	<path fill="#FFFFFF" d="M386.902,12.217c-1.342,0.093-3.355,0.684-4.268,0.868c-0.168,0.037-0.646-0.942-0.646-1.274
		c0-0.924,6.185-1.571,7-1.571c0.406,0,0.791,0.684,0.791,0.924c-0.911,0.813-6.041,5.581-6.328,6.671
		c1.869-0.313,3.212-0.646,5.152-0.646c0.623,0.074,0.912,1.164,0.912,1.293c0,0.352-2.926,0.463-3.765,0.608
		c-1.007,0.187-2.469,0.556-3.38,0.888c-0.839,0.11-0.839-0.701-0.839-1.164C381.533,17.335,385.271,13.75,386.902,12.217z"/>
	<path fill="#FFFFFF" d="M393.16,9.261c0.91,0,1.965,0.554,1.965,2.254c0,2.364-0.839,4.508-2.732,4.508
		c-1.029,0-1.391-0.775-1.391-0.775s-0.432,0.979-0.432,2.477c0,0.868,0.432,1.516,1.654,1.516c1.846,0,3.332-2.311,3.332-3.529
		c0,0,0-0.203,0.336-0.203c0.383,0,0.694,0.369,0.694,0.887c0,1.607-1.295,4.324-3.956,4.324c-1.846,0-3.57-1.312-3.57-3.621
		C389.061,14.009,391.05,9.261,393.16,9.261z M391.891,14.914c0.838,0,1.558-2.088,1.558-3.787c0-0.776-0.168-0.869-0.287-0.869
		c-0.097,0-0.216,0.074-0.36,0.333c-0.574,0.998-1.246,2.513-1.51,3.862C391.29,14.453,391.41,14.914,391.891,14.914z"/>
	<path fill="#FFFFFF" d="M398.314,13.824c0.623-1.184,1.103-2.846,1.438-3.77c0.167-0.443,0.791-0.591,1.484-0.462
		c0.505,0.093,0.769,0.277,0.769,0.646c0,0.684-1.03,1.774-1.03,3.124c0,0.259,0.336,0.554,0.719,0.554
		c0.959,0,1.246-1.09,1.392-1.09c0.167,0,0.383,0.11,0.383,0.239c-0.048,0.646-0.791,1.701-2.036,1.701
		c-1.414,0-1.774-0.722-1.871-1.535c-0.432,0.998-1.582,3.123-1.629,6.154c-0.553,0.258-2.109-0.26-2.109-0.666
		c0-0.535,0.264-1.219,0.455-5.229c0.072-1.83,0.145-3.604,0.959-3.604c0.623,0,1.365,0.425,1.365,0.425
		c-0.07,0.998-0.383,2.365-0.455,3.455L398.314,13.824z"/>
	<path fill="#FFFFFF" d="M404.044,12.549c0,0,4.41,1.516,4.41,4.73c0,2.125-1.462,2.92-3.116,2.92c-2.014,0-3.955-1.736-3.955-3.197
		c0-0.684,0.575-2.143,1.438-2.143c0.337,0,1.078,0.518,1.078,0.684c0,0.591-1.029,2.051-1.029,2.217s0.312,1.072,1.701,1.072
		c1.511,0,2.229-0.85,2.229-2.107c0-1.885-2.254-3.252-3.836-3.398c-0.432-0.277-0.671-0.924-0.623-1.404
		c0.097-0.775,5.921-2.384,6.28-2.384c0.24,0,0.791,0.48,0.791,0.813c0,0.702-1.63,1.719-2.229,1.719
		c-0.24,0-0.312-0.499-0.552-0.499c-0.623,0.019-2.444,0.758-2.612,0.905L404.044,12.549z"/>
</g>
</svg>
